<?xml version="1.0" encoding="UTF-8"?>
<svg width="13px" height="13px" viewBox="0 0 13 13" version="1.1" xmlns="http://www.w3.org/2000/svg" xmlns:xlink="http://www.w3.org/1999/xlink">
    <!-- Generator: Sketch 61.2 (89653) - https://sketch.com -->
    <title>checkmark-circle-2 (1)</title>
    <desc>Created with Sketch.</desc>
    <g id="Page-1" stroke="none" stroke-width="1" fill="none" fill-rule="evenodd">
        <g id="Mobile-Copy" transform="translate(-266.000000, -274.000000)" fill="#000000" fill-rule="nonzero">
            <g id="Group-2" transform="translate(36.000000, 253.000000)">
                <g id="checkmark-circle-2-(1)" transform="translate(229.000000, 19.000000)">
                    <rect id="Rectangle" opacity="0" x="0" y="0" width="16" height="16"></rect>
                    <path d="M7.5,2 C3.91014913,2 1,4.91014913 1,8.5 C1,12.0898509 3.91014913,15 7.5,15 C11.0898509,15 14,12.0898509 14,8.5 C14,6.77609282 13.3151805,5.12279238 12.0961941,3.90380592 C10.8772076,2.68481946 9.22390718,2 7.5,2 Z M10.295,6.9465 L7.3245,10.8465 C7.20178481,11.0059105 7.01217282,11.0995165 6.811,11.1000095 C6.61094278,11.1010777 6.42153438,11.0099698 6.2975,10.853 L4.7115,8.8315 C4.56868308,8.64804412 4.53458735,8.40233198 4.62205634,8.18692096 C4.70952534,7.97150993 4.90527043,7.8191261 5.13555634,7.78717096 C5.36584226,7.75521581 5.59568308,7.84854412 5.7385,8.032 L6.798,9.384 L9.255,6.134 C9.3966558,5.94822188 9.62666261,5.85212829 9.85837908,5.88191677 C10.0900956,5.91170524 10.2883184,6.06285019 10.3783791,6.27841678 C10.4684398,6.49398336 10.4366558,6.74122189 10.295,6.927 L10.295,6.9465 Z" id="Shape"></path>
                </g>
            </g>
        </g>
    </g>
</svg>