<?xml version="1.0" encoding="UTF-8"?>
<svg width="16px" height="16px" viewBox="0 0 16 16" version="1.1" xmlns="http://www.w3.org/2000/svg" xmlns:xlink="http://www.w3.org/1999/xlink">
    <!-- Generator: Sketch 61.2 (89653) - https://sketch.com -->
    <title>settings-2</title>
    <desc>Created with Sketch.</desc>
    <g id="Page-1" stroke="none" stroke-width="1" fill="none" fill-rule="evenodd">
        <g id="settings" transform="translate(-274.000000, -534.000000)" fill="#000000" fill-rule="nonzero">
            <g id="settings-2" transform="translate(273.000000, 533.000000)">
                <rect id="Rectangle" opacity="0" transform="translate(9.000000, 9.000000) rotate(180.000000) translate(-9.000000, -9.000000) " x="-1.33226763e-15" y="1.33226763e-15" width="18" height="18"></rect>
                <circle id="Oval" cx="9" cy="9" r="1.125"></circle>
                <path d="M15.24,7.0275 L14.4225,7.0275 C14.3175,7.0275 14.2425,6.945 14.1975,6.8325 C14.142763,6.74809766 14.142763,6.63940234 14.1975,6.555 L14.805,6 C15.0455907,5.76857432 15.1810768,5.44882719 15.18,5.115 C15.1796706,4.77926414 15.0445664,4.45771609 14.805,4.2225 L13.8,3.195 C13.5648633,2.95820922 13.2449552,2.82504161 12.91125,2.82504161 C12.5775448,2.82504161 12.2576367,2.95820922 12.0225,3.195 L11.445,3.75 C11.3512919,3.81003906 11.2312081,3.81003906 11.1375,3.75 C11.045054,3.71552615 10.9807909,3.63081566 10.9725,3.5325 L10.9725,2.76 C10.9728019,2.07850666 10.4311915,1.52028247 9.75,1.5 L8.295,1.5 C7.59789758,1.5 7.03162487,2.06290979 7.0275,2.76 L7.0275,3.5775 C7.0275,3.6825 6.945,3.7575 6.8325,3.8025 C6.74809766,3.85723696 6.63940234,3.85723696 6.555,3.8025 L6,3.195 C5.7624624,2.95887747 5.44240091,2.82439785 5.1075,2.82 C4.77402311,2.82065059 4.4549231,2.95586246 4.2225,3.195 L3.195,4.2 C2.95120644,4.43595591 2.81356616,4.76072062 2.81356616,5.1 C2.81356616,5.43927938 2.95120644,5.76404409 3.195,6 L3.75,6.555 C3.81003906,6.64870807 3.81003906,6.76879193 3.75,6.8625 C3.71552615,6.954946 3.63081566,7.01920913 3.5325,7.0275 L2.76,7.0275 C2.06412122,7.0275 1.5,7.59162122 1.5,8.2875 L1.5,9.705 C1.5,10.4021024 2.06290979,10.9683751 2.76,10.9725 L3.5775,10.9725 C3.6825,10.9725 3.7575,11.055 3.8025,11.1675 C3.85723696,11.2519023 3.85723696,11.3605977 3.8025,11.445 L3.195,12 C2.95887747,12.2375376 2.82439785,12.5575991 2.82,12.8925 C2.81948119,13.2284067 2.95471795,13.5502702 3.195,13.785 L4.2,14.805 C4.43513667,15.0417908 4.75504485,15.1749584 5.08875,15.1749584 C5.42245515,15.1749584 5.74236333,15.0417908 5.9775,14.805 L6.555,14.25 C6.64870807,14.1899609 6.76879193,14.1899609 6.8625,14.25 C6.954946,14.2844738 7.01920913,14.3691843 7.0275,14.4675 L7.0275,15.285 C7.05173834,15.9632446 7.60882262,16.500433 8.2875,16.5 L9.705,16.5 C10.4021024,16.5 10.9683751,15.9370902 10.9725,15.24 L10.9725,14.4225 C10.9725,14.3175 11.055,14.2425 11.1675,14.1975 C11.2519023,14.142763 11.3605977,14.142763 11.445,14.1975 L12.015,14.775 C12.2525376,15.0111225 12.5725991,15.1456021 12.9075,15.15 C13.2409769,15.1493494 13.5600769,15.0141375 13.7925,14.775 L14.7975,13.77 C15.0342908,13.5348633 15.1674584,13.2149552 15.1674584,12.88125 C15.1674584,12.5475448 15.0342908,12.2276367 14.7975,11.9925 L14.25,11.445 C14.195263,11.3605977 14.195263,11.2519023 14.25,11.1675 C14.2844738,11.075054 14.3691843,11.0107909 14.4675,11.0025 L15.285,11.0025 C15.960347,10.9783746 16.4964083,10.4257683 16.5,9.75 L16.5,8.295 C16.5,7.59789758 15.9370902,7.03162487 15.24,7.0275 Z M9,11.625 C7.93828661,11.625 6.98111635,10.9854393 6.57481623,10.004544 C6.1685161,9.02364874 6.39309996,7.89458944 7.1438447,7.1438447 C7.89458944,6.39309996 9.02364874,6.1685161 10.004544,6.57481623 C10.9854393,6.98111635 11.625,7.93828661 11.625,9 C11.625,10.4497475 10.4497475,11.625 9,11.625 L9,11.625 Z" id="Shape"></path>
            </g>
        </g>
    </g>
</svg>