<?xml version="1.0" encoding="UTF-8"?>
<svg width="14px" height="14px" viewBox="0 0 14 14" version="1.1" xmlns="http://www.w3.org/2000/svg" xmlns:xlink="http://www.w3.org/1999/xlink">
    <!-- Generator: Sketch 61.2 (89653) - https://sketch.com -->
    <title>search</title>
    <desc>Created with Sketch.</desc>
    <g id="Page-1" stroke="none" stroke-width="1" fill="none" fill-rule="evenodd">
        <g id="settings" transform="translate(-91.000000, -535.000000)" fill="#000000" fill-rule="nonzero">
            <g id="search" transform="translate(89.000000, 533.000000)">
                <rect id="Rectangle" opacity="0" x="0" y="0" width="18" height="18"></rect>
                <path d="M15.7700087,14.6659199 L13.1264159,12.0301023 C13.9793513,10.9434727 14.4421549,9.60161632 14.440437,8.22021851 C14.440437,4.78488669 11.6555503,2 8.22021851,2 C4.78488669,2 2,4.78488669 2,8.22021851 C2,11.6555503 4.78488669,14.440437 8.22021851,14.440437 C9.60161632,14.4421549 10.9434727,13.9793513 12.0301023,13.1264159 L14.6659199,15.7700087 C14.8119136,15.9172045 15.0106464,16 15.2179643,16 C15.4252823,16 15.6240151,15.9172045 15.7700087,15.7700087 C15.9172045,15.6240151 16,15.4252823 16,15.2179643 C16,15.0106464 15.9172045,14.8119136 15.7700087,14.6659199 Z M3.55505463,8.22021851 C3.55505463,5.64371964 5.64371964,3.55505463 8.22021851,3.55505463 C10.7967174,3.55505463 12.8853824,5.64371964 12.8853824,8.22021851 C12.8853824,10.7967174 10.7967174,12.8853824 8.22021851,12.8853824 C5.64371964,12.8853824 3.55505463,10.7967174 3.55505463,8.22021851 Z" id="Shape"></path>
            </g>
        </g>
    </g>
</svg>