<?xml version="1.0" encoding="UTF-8"?>
<svg width="14px" height="16px" viewBox="0 0 14 16" version="1.1" xmlns="http://www.w3.org/2000/svg" xmlns:xlink="http://www.w3.org/1999/xlink">
    <!-- Generator: Sketch 61.2 (89653) - https://sketch.com -->
    <title>home</title>
    <desc>Created with Sketch.</desc>
    <g id="Page-1" stroke="none" stroke-width="1" fill="none" fill-rule="evenodd">
        <g id="settings" transform="translate(-31.000000, -534.000000)" fill="#000000" fill-rule="nonzero">
            <g id="home" transform="translate(29.000000, 533.000000)">
                <rect id="Rectangle" opacity="0" x="0" y="0" width="18" height="18"></rect>
                <rect id="Rectangle" x="7.5" y="10.5" width="3" height="5.25"></rect>
                <path d="M15.315,7.635 L9.5325,1.725 C9.39167505,1.58301551 9.19997815,1.50315126 9,1.50315126 C8.80002185,1.50315126 8.60832495,1.58301551 8.4675,1.725 L2.685,7.6425 C2.40236644,7.92741406 2.24568975,8.31370313 2.24991336,8.715 L2.24991336,15 C2.2487933,15.7972499 2.87145589,16.4561521 3.6675,16.5 L6,16.5 L6,9.75 C6,9.33578644 6.33578644,9 6.75,9 L11.25,9 C11.6642136,9 12,9.33578644 12,9.75 L12,16.5 L14.3325,16.5 C15.1285441,16.4561521 15.7512067,15.7972499 15.7500018,15 L15.7500018,8.715 C15.7505948,8.31220049 15.5946139,7.92493769 15.315,7.635 Z" id="Path"></path>
            </g>
        </g>
    </g>
</svg>