<?xml version="1.0" encoding="UTF-8"?>
<svg width="23px" height="23px" viewBox="0 0 23 23" version="1.1" xmlns="http://www.w3.org/2000/svg" xmlns:xlink="http://www.w3.org/1999/xlink">
    <!-- Generator: Sketch 61.2 (89653) - https://sketch.com -->
    <title>plus-circle</title>
    <desc>Created with Sketch.</desc>
    <g id="Page-1" stroke="none" stroke-width="1" fill="none" fill-rule="evenodd">
        <g id="settings" transform="translate(-149.000000, -531.000000)" fill="#000000" fill-rule="nonzero">
            <g id="plus-circle" transform="translate(146.000000, 528.000000)">
                <rect id="Rectangle" opacity="0" x="0" y="0" width="28" height="28"></rect>
                <path d="M14.5,3 C8.14872538,3 3,8.14872538 3,14.5 C3,20.8512746 8.14872538,26 14.5,26 C20.8512746,26 26,20.8512746 26,14.5 C26,11.4500104 24.7883963,8.52494037 22.631728,6.36827202 C20.4750596,4.21160366 17.5499896,3 14.5,3 Z M17.95,15.65 L15.65,15.65 L15.65,17.95 C15.65,18.5851275 15.1351275,19.1 14.5,19.1 C13.8648725,19.1 13.35,18.5851275 13.35,17.95 L13.35,15.65 L11.05,15.65 C10.4148725,15.65 9.9,15.1351275 9.9,14.5 C9.9,13.8648725 10.4148725,13.35 11.05,13.35 L13.35,13.35 L13.35,11.05 C13.35,10.4148725 13.8648725,9.9 14.5,9.9 C15.1351275,9.9 15.65,10.4148725 15.65,11.05 L15.65,13.35 L17.95,13.35 C18.5851275,13.35 19.1,13.8648725 19.1,14.5 C19.1,15.1351275 18.5851275,15.65 17.95,15.65 Z" id="Shape"></path>
            </g>
        </g>
    </g>
</svg>