<?xml version="1.0" encoding="UTF-8"?>
<svg width="39px" height="39px" viewBox="0 0 39 39" version="1.1" xmlns="http://www.w3.org/2000/svg" xmlns:xlink="http://www.w3.org/1999/xlink">
    <!-- Generator: Sketch 61.2 (89653) - https://sketch.com -->
    <title>Group</title>
    <desc>Created with Sketch.</desc>
    <g id="Page-1" stroke="none" stroke-width="1" fill="none" fill-rule="evenodd">
        <g id="signin" transform="translate(-141.000000, -68.000000)">
            <g id="Group" transform="translate(141.000000, 68.000000)">
                <rect id="Rectangle" stroke="#000000" stroke-width="1.45" fill="#000000" x="0.725" y="0.725" width="37.55" height="37.55"></rect>
                <path d="M8.2708537,13.6268593 L8.2708537,24.1727102 C12.3142562,23.3455132 15.0828451,23.0623838 16.6375806,23.3362007 C17.9009624,23.558705 18.8622878,24.2247852 19.4993606,25.3003244 C20.1346207,24.2270879 21.0955887,23.5593124 22.3624194,23.3362007 C23.9171549,23.0623838 26.6857438,23.3455132 30.7291463,24.1727102 L30.7291463,13.6268593 C26.6998577,12.7907245 23.9657408,12.5005093 22.5916677,12.7425083 C21.320043,12.9664643 20.5228732,13.7946739 20.1416844,15.3426483 L19.5239279,17.8513039 L18.8612544,15.3541375 L18.8009683,15.1265201 C18.3990486,13.7175463 17.6217149,12.9562068 16.4083323,12.7425083 C15.0342592,12.5005093 12.3001423,12.7907245 8.2708537,13.6268593 Z" id="Combined-Shape" stroke="#FFFFFF" stroke-width="1.32170739" fill="#FFFFFF"></path>
            </g>
        </g>
    </g>
</svg>